#!OML:ASF H:\ManfredObstacles\Project 1\Capture day 2\Session 1\male.ASF
:FULLY-SPECIFIED
:DEGREES
227
root 2.2864 19.9654 -2.65593 -168.698 2.9254 -183.778
lowerback 6.41605 -0.131303 -6.23943
upperback 7.58595 0.492698 -1.13999
thorax 4.30949 0.316713 2.31818
lowerneck -27.0302 -1.61122 4.48419
upperneck 45.1783 1.86735 -1.88766
head 25.3285 2.66949 -0.791802
rclavicle 1.10325e-014 3.51849e-014
rhumerus -60.1383 7.30209 -80.1332
rradius 65.8198
rwrist 9.68952
rhand -2.23296 -10.036
rfingers 7.12502
rthumb 23.4499 -38.627
lclavicle 1.10325e-014 3.51849e-014
lhumerus -67.0501 -35.6267 86.9394
lradius 73.0803
lwrist -18.5352
lhand -8.70316 9.19747
lfingers 7.12502
lthumb 17.2322 38.4534
rfemur -39.2523 3.52572 16.8571
rtibia 30.4656
rfoot 20.5461 -16.8495
rtoes -13.4478
lfemur -35.7117 -9.10257 -20.1871
ltibia 28.7501
lfoot 24.0834 4.37865
ltoes 5.68765
228
root 2.294 19.7682 -2.9398 -168.924 2.84936 -183.827
lowerback 6.20299 -0.235159 -6.25786
upperback 7.69059 0.384785 -1.12611
thorax 4.55066 0.256739 2.34767
lowerneck -27.0441 -1.59759 4.43863
upperneck 45.2324 1.96712 -1.93077
head 25.4042 2.69487 -0.777478
rclavicle 9.64106e-015 2.20651e-014
rhumerus -60.9364 6.25442 -79.5111
rradius 65.4102
rwrist 9.83446
rhand -2.14316 -9.9191
rfingers 7.12502
rthumb 23.5361 -38.4991
lclavicle 9.64106e-015 2.20651e-014
lhumerus -68.3488 -34.8741 87.1738
lradius 73.2051
lwrist -18.5573
lhand -8.48197 8.91586
lfingers 7.12502
lthumb 17.445 38.1531
rfemur -39.4739 3.54074 16.6776
rtibia 30.3018
rfoot 20.712 -16.4061
rtoes -14.3537
lfemur -35.8747 -9.56985 -20.0626
ltibia 27.9986
lfoot 23.745 5.42735
ltoes 4.6492
229
root 2.3013 19.5591 -3.22152 -169.17 2.74185 -183.863
lowerback 6.01383 -0.348264 -6.2584
upperback 7.78574 0.261209 -1.10482
thorax 4.76984 0.18997 2.37409
lowerneck -27.0494 -1.58853 4.37378
upperneck 45.2827 2.0641 -1.96377
head 25.4715 2.7167 -0.754149
rclavicle 5.1684e-015 1.88845e-014
rhumerus -61.5519 5.17689 -78.8855
rradius 64.8757
rwrist 9.86386
rhand -2.10753 -9.915
rfingers 7.12502
rthumb 23.5703 -38.4906
lclavicle 5.1684e-015 1.88845e-014
lhumerus -69.4167 -34.0756 87.3436
lradius 73.2179
lwrist -18.5098
lhand -8.26557 8.67315
lfingers 7.12502
lthumb 17.6533 37.8918
rfemur -39.6469 3.53823 16.5218
rtibia 30.2901
rfoot 21.0359 -15.7946
rtoes -15.439
lfemur -36.0707 -9.79864 -20.0622
ltibia 27.5375
lfoot 23.633 6.37107
ltoes 3.55815
230
root 2.30861 19.3378 -3.50043 -169.431 2.60456 -183.874
lowerback 5.86254 -0.467077 -6.2364
upperback 7.85909 0.122412 -1.06655
thorax 4.94553 0.116579 2.40471
lowerneck -27.0402 -1.57424 4.29394
upperneck 45.3076 2.16702 -1.9991
head 25.5044 2.73466 -0.728613
rclavicle -1.2921e-014 -1.33186e-014
rhumerus -61.9983 4.0888 -78.2673
rradius 64.2205
rwrist 9.78954
rhand -2.13968 -9.99392
rfingers 7.12502
rthumb 23.5394 -38.5735
lclavicle -1.2921e-014 -1.33186e-014
lhumerus -70.2596 -33.2479 87.4827
lradius 73.0978
lwrist -18.4455
lhand -8.09509 8.5083
lfingers 7.12502
lthumb 17.8173 37.7121
rfemur -39.7863 3.51172 16.4146
rtibia 30.4817
rfoot 21.5866 -15.0372
rtoes -16.4683
lfemur -36.2624 -9.63974 -20.2413
ltibia 27.3407
lfoot 23.7153 7.04528
ltoes 2.55905
231
root 2.31626 19.1035 -3.77607 -169.725 2.44575 -183.865
lowerback 5.75761 -0.584522 -6.20058
upperback 7.92441 -0.0191057 -1.01721
thorax 5.08678 0.0433296 2.43833
lowerneck -27.0519 -1.55778 4.22166
upperneck 45.323 2.2653 -2.04534
head 25.5367 2.74969 -0.712801
rclavicle 2.68359e-015 -9.74045e-015
rhumerus -62.2655 2.9699 -77.6709
rradius 63.4708
rwrist 9.65689
rhand -2.24398 -10.149
rfingers 7.12502
rthumb 23.4394 -38.7413
lclavicle 2.68359e-015 -9.74045e-015
lhumerus -70.8448 -32.407 87.5927
lradius 72.8272
lwrist -18.3802
lhand -7.98518 8.44957
lfingers 7.12502
lthumb 17.9231 37.6437
rfemur -39.8953 3.45187 16.3626
rtibia 30.9484
rfoot 22.4148 -14.1643
rtoes -17.2568
lfemur -36.3949 -8.99824 -20.6557
ltibia 27.3855
lfoot 23.9153 7.33285
ltoes 1.71499
232
root 2.32392 18.8551 -4.04858 -170.07 2.26469 -183.853
lowerback 5.72311 -0.696255 -6.16221
upperback 7.97638 -0.159376 -0.960059
thorax 5.17409 -0.0275151 2.47817
lowerneck -27.0332 -1.54718 4.12305
upperneck 45.3136 2.35271 -2.07924
head 25.5252 2.75578 -0.688483
rclavicle -1.19271e-015 5.36719e-015
rhumerus -62.3941 1.81289 -77.0908
rradius 62.6704
rwrist 9.4855
rhand -2.39096 -10.3462
rfingers 7.12502
rthumb 23.2984 -38.9565
lclavicle -1.19271e-015 5.36719e-015
lhumerus -71.1955 -31.5612 87.6964
lradius 72.4211
lwrist -18.3031
lhand -7.96829 8.489
lfingers 7.12502
lthumb 17.9394 37.6816
rfemur -39.9735 3.32033 16.3702
rtibia 31.7656
rfoot 23.4715 -13.2195
rtoes -17.646
lfemur -36.4396 -7.92126 -21.3066
ltibia 27.6753
lfoot 24.1847 7.1772
ltoes 1.0876
